<?xml version="1.0" standalone="no"?>
<!DOCTYPE svg PUBLIC "-//W3C//DTD SVG 20010904//EN"
 "http://www.w3.org/TR/2001/REC-SVG-20010904/DTD/svg10.dtd">
<svg version="1.0" xmlns="http://www.w3.org/2000/svg"
 width="300.000000pt" height="300.000000pt" viewBox="0 0 300.000000 300.000000"
 preserveAspectRatio="xMidYMid meet">
<metadata>
Created by potrace 1.10, written by Peter Selinger 2001-2011
</metadata>
<g transform="translate(0.000000,300.000000) scale(0.100000,-0.100000)"
fill="#000000" stroke="none">
<path d="M2972 2992 c-6 -2 -10 -7 -7 -12 3 -4 5 -500 5 -1102 0 -601 0 -1195
0 -1320 0 -126 -3 -228 -8 -228 -8 0 -40 51 -70 112 -29 56 -126 133 -235 185
-46 22 -174 99 -187 113 -5 5 -46 25 -100 48 -14 6 -87 40 -163 76 -76 36
-140 66 -143 66 -2 0 -22 13 -43 28 -22 16 -60 36 -84 46 -52 20 -53 24 -56
181 -1 55 -4 114 -7 131 -4 20 0 44 10 63 19 36 56 149 56 171 0 9 18 33 39
54 37 36 48 62 57 134 3 18 13 67 23 109 27 117 7 183 -56 183 -23 0 -23 1
-23 121 0 164 -17 293 -42 308 -15 9 -18 8 -18 -10 0 -11 -4 -18 -10 -14 -5 3
-7 11 -4 18 2 7 -16 34 -41 61 -24 27 -42 53 -38 59 4 6 0 8 -10 4 -12 -4 -17
-1 -17 11 0 13 -2 14 -9 3 -6 -10 -10 -10 -16 -1 -4 6 -13 9 -20 6 -7 -2 -23
3 -36 12 -16 11 -24 12 -27 4 -7 -21 -20 -13 -14 10 3 14 2 19 -6 14 -7 -4
-12 -4 -12 1 0 14 -41 75 -46 70 -3 -3 6 -26 21 -51 19 -33 23 -46 13 -46 -17
0 -44 31 -53 61 -9 30 -23 47 -48 61 -22 11 -19 4 20 -48 17 -23 21 -39 18
-70 -3 -24 -2 -34 4 -25 6 9 11 10 15 3 4 -6 13 -9 21 -5 8 3 15 1 15 -4 0
-10 45 -11 55 -2 10 11 75 -8 97 -28 39 -35 83 -108 115 -193 21 -56 33 -77
34 -60 2 41 18 -48 18 -105 l0 -50 -18 40 c-23 49 -27 27 -5 -34 12 -36 14
-72 9 -190 -4 -80 -11 -172 -16 -205 -6 -32 -12 -93 -14 -135 -5 -85 -29 -193
-52 -231 -25 -41 -72 -80 -88 -74 -8 4 -15 1 -15 -5 0 -6 -8 -11 -17 -11 -17
-1 -17 -1 0 -14 19 -15 22 -26 7 -26 -6 0 -16 11 -22 25 -15 33 -27 32 -20 -1
4 -20 2 -25 -8 -19 -9 5 -11 4 -6 -4 4 -6 0 -14 -8 -17 -9 -3 -14 -9 -12 -13
3 -4 1 -13 -4 -21 -6 -9 -3 -18 7 -25 11 -9 13 -14 5 -19 -7 -4 -12 -3 -12 3
0 6 -6 8 -13 5 -8 -3 -20 3 -28 12 -12 16 -12 17 4 11 21 -8 22 -1 3 18 -12
12 -15 12 -20 -2 -6 -14 14 -47 39 -65 5 -4 6 -10 2 -14 -3 -4 -13 -1 -21 5
-17 14 -29 0 -20 -22 4 -12 0 -14 -15 -10 -12 3 -21 1 -21 -5 0 -11 -60 -35
-68 -27 -3 2 1 11 8 20 8 9 8 15 2 15 -6 0 -13 -8 -17 -19 -3 -10 -11 -18 -18
-18 -7 1 -29 -2 -49 -7 -28 -6 -50 -3 -92 13 -47 17 -56 18 -56 6 0 -8 7 -16
15 -16 20 -2 24 -3 60 -18 40 -17 211 -9 251 12 48 25 105 95 202 244 15 23
29 42 32 43 3 0 5 -77 6 -170 1 -154 3 -172 20 -184 10 -8 23 -12 30 -9 6 2
41 -16 78 -41 37 -25 149 -82 249 -127 100 -46 218 -106 262 -134 44 -27 120
-70 169 -95 126 -63 181 -120 245 -251 28 -57 56 -128 63 -157 7 -28 15 -52
18 -52 5 0 3 1820 -3 2541 -1 256 -5 325 -15 321z m-934 -994 c16 -16 15 -91
-2 -133 -8 -19 -22 -76 -31 -127 -17 -99 -26 -118 -57 -118 -18 0 -20 5 -14
43 3 23 8 62 11 87 4 25 11 46 15 48 5 2 7 38 3 81 -5 64 -3 82 12 104 18 29
43 35 63 15z"/>
<path d="M2007 1963 c-11 -10 -8 -45 2 -39 5 4 12 0 14 -6 3 -7 6 2 6 20 1 30
-8 40 -22 25z"/>
<path d="M1215 2819 c-10 -15 -5 -16 42 -11 24 2 40 8 37 13 -7 13 -71 11 -79
-2z"/>
<path d="M1570 2784 c0 -7 7 -14 15 -17 8 -4 28 -25 45 -48 16 -23 30 -37 30
-30 0 16 -89 110 -90 95z"/>
<path d="M1691 2681 c14 -19 35 -38 48 -42 30 -12 20 2 -32 43 l-42 33 26 -34z"/>
<path d="M1850 2646 c0 -28 17 -43 32 -28 7 7 3 17 -11 31 l-21 21 0 -24z"/>
<path d="M1410 2643 c1 -19 27 -48 45 -51 17 -3 16 1 -9 27 -31 32 -36 36 -36
24z"/>
<path d="M1290 2625 c0 -6 56 -35 67 -35 13 1 -41 40 -54 40 -7 0 -13 -2 -13
-5z"/>
<path d="M1072 2556 c-60 -44 -87 -77 -75 -90 3 -3 1 -6 -5 -6 -7 0 -12 -6
-12 -14 0 -8 -6 -17 -12 -19 -10 -4 -10 -6 -1 -6 10 -1 10 -7 1 -26 -11 -24
-38 -35 -38 -15 0 6 5 10 11 10 6 0 9 9 6 20 -3 11 -1 36 3 57 10 43 7 51 -15
33 -10 -9 -16 -29 -15 -59 0 -25 1 -104 1 -175 0 -70 7 -178 16 -240 25 -183
26 -196 13 -211 -13 -15 -4 -39 11 -30 5 4 9 3 9 -2 0 -21 41 -228 60 -306 16
-62 34 -106 63 -150 61 -91 117 -161 117 -144 0 8 -7 20 -15 27 -8 7 -13 16
-10 20 2 4 -4 15 -15 25 -11 10 -20 22 -20 28 0 5 -17 30 -38 56 -21 25 -43
62 -49 81 -14 39 -41 166 -41 190 0 18 -5 42 -31 139 -23 85 -30 342 -12 401
14 46 14 46 -9 25 -20 -18 -20 -17 -22 16 -2 50 3 93 12 104 4 6 13 35 20 65
7 30 19 67 27 82 36 73 121 138 179 138 37 0 22 13 -20 17 -27 3 -45 -5 -94
-41z"/>
<path d="M1705 2158 c-38 -11 -86 -24 -106 -29 -24 -6 -39 -16 -42 -29 -6 -22
8 -28 16 -7 4 8 6 9 6 0 1 -7 12 -10 29 -7 111 17 158 29 164 39 9 14 44 9 55
-8 4 -6 1 -7 -7 -2 -9 5 -11 4 -6 -4 4 -6 15 -10 24 -9 9 2 17 -1 17 -7 1 -18
23 -50 31 -43 12 13 -18 69 -46 83 -15 8 -30 21 -33 30 -8 18 -13 18 -102 -7z"/>
<path d="M1093 2122 c-43 -39 -66 -75 -56 -86 11 -10 23 -7 23 7 0 46 86 59
216 35 63 -11 92 -6 64 12 -13 8 -12 10 3 10 10 0 16 4 12 10 -3 5 -13 6 -23
3 -10 -4 -14 -2 -9 3 5 5 -20 13 -60 19 -59 9 -72 8 -102 -8 -18 -10 -38 -16
-45 -13 -6 2 -3 5 6 5 21 1 29 13 19 29 -5 8 -20 0 -48 -26z"/>
<path d="M1530 2121 c0 -6 -7 -11 -15 -11 -8 0 -15 -4 -15 -9 0 -10 29 -36 34
-30 11 12 15 48 6 54 -5 3 -10 1 -10 -4z"/>
<path d="M1612 2049 c-43 -22 -81 -64 -68 -76 3 -3 6 -2 6 4 0 6 7 14 16 17
12 4 14 1 9 -14 -4 -12 -2 -20 5 -20 7 0 23 -9 37 -20 31 -24 62 -26 59 -5 -3
20 -56 53 -76 47 -8 -3 -2 10 14 27 l30 31 10 -32 c12 -35 38 -47 61 -28 20
16 19 41 0 34 -8 -4 -15 -2 -15 4 0 16 30 23 50 12 31 -17 29 -34 -9 -57 -20
-13 -31 -23 -26 -23 6 0 25 9 44 21 32 19 34 19 53 2 20 -18 20 -17 14 5 -5
15 -3 22 6 22 7 0 -2 14 -19 32 -28 28 -40 32 -95 36 -50 2 -72 -1 -106 -19z"/>
<path d="M1151 2033 c-34 -12 -61 -36 -61 -56 0 -4 6 -5 13 -2 6 4 4 0 -7 -9
-10 -8 -16 -21 -14 -28 3 -8 20 3 46 30 46 47 57 51 65 22 11 -43 66 -36 77 9
l5 23 27 -21 c33 -27 47 -27 23 -1 -23 26 -11 26 26 -1 24 -17 28 -25 23 -47
-7 -26 -6 -27 13 -9 11 9 22 15 25 12 7 -7 2 36 -7 64 -7 23 -31 28 -37 9 -4
-10 -11 -10 -34 1 -37 18 -136 20 -183 4z"/>
<path d="M1270 1930 c-19 -11 -29 -19 -22 -20 14 0 72 28 72 35 0 9 -15 4 -50
-15z"/>
<path d="M887 1913 c-2 -5 1 -28 7 -53 10 -44 10 -44 14 -12 2 17 7 32 13 32
5 0 9 4 9 10 0 12 -38 32 -43 23z"/>
<path d="M1325 1741 c-19 -43 -15 -79 11 -105 17 -17 59 -22 49 -6 -3 6 -13
10 -21 10 -26 0 -37 51 -20 88 18 37 20 52 8 52 -5 0 -17 -18 -27 -39z"/>
<path d="M1612 1724 c6 -13 15 -24 20 -24 5 0 6 -4 3 -10 -3 -5 -1 -10 4 -10
6 0 17 -15 24 -32 8 -18 24 -42 36 -52 22 -20 22 -20 15 0 -4 10 -11 25 -17
32 -5 6 -6 12 -1 12 5 0 5 4 -1 8 -15 10 -55 70 -55 80 0 6 -9 12 -19 15 -17
4 -18 2 -9 -19z"/>
<path d="M905 1680 c4 -14 8 -32 9 -41 1 -9 9 -27 18 -40 16 -23 16 -21 3 24
-15 52 -42 103 -30 57z"/>
<path d="M1380 1666 c0 -8 10 -18 23 -22 12 -3 30 -13 39 -21 10 -9 24 -13 33
-10 17 7 21 37 5 37 -5 0 -10 -5 -10 -12 0 -6 -13 0 -28 15 -30 29 -62 36 -62
13z"/>
<path d="M1530 1665 c-11 -13 -8 -15 13 -15 14 0 27 -4 29 -10 2 -6 9 -6 17 0
12 7 12 11 2 24 -17 20 -45 20 -61 1z"/>
<path d="M1527 1594 c-3 -3 -3 -12 0 -20 6 -17 -9 -18 -25 -2 -9 9 -12 4 -12
-24 0 -32 3 -36 33 -42 72 -14 80 -12 88 16 5 19 3 31 -7 39 -11 9 -14 8 -14
-2 0 -8 -10 -2 -21 14 -21 27 -31 32 -42 21z"/>
<path d="M1380 1568 c-18 -15 -21 -21 -11 -27 9 -6 10 -11 2 -15 -6 -4 -11 -3
-11 3 0 15 -63 1 -77 -18 -8 -10 -15 -12 -20 -6 -16 20 -61 12 -76 -14 -14
-24 -13 -28 9 -56 18 -23 24 -26 24 -12 0 20 -1 20 168 18 74 -1 170 3 215 9
79 10 83 10 99 -12 10 -13 22 -27 26 -33 4 -5 8 -22 9 -37 2 -54 3 -59 13 -53
12 7 13 52 2 59 -17 10 -13 93 4 111 13 12 13 16 3 15 -28 -4 -38 0 -44 20 -4
11 -10 18 -15 15 -5 -3 -5 -17 1 -33 9 -26 8 -25 -22 8 -17 19 -27 29 -23 21
4 -9 2 -12 -7 -9 -8 3 -13 11 -11 17 1 7 -2 10 -8 6 -12 -8 -9 -37 5 -47 5 -4
13 -2 17 5 4 7 6 3 6 -9 -2 -18 -10 -23 -53 -28 -80 -9 -303 -7 -310 4 -3 5
-13 6 -23 3 -9 -4 -3 5 14 20 35 30 49 34 41 14 -8 -20 82 -16 97 4 6 9 17 14
25 11 11 -4 12 2 7 24 -9 34 -8 34 -32 38 -11 2 -30 -5 -44 -16z"/>
<path d="M1429 1361 c-1 -3 -1 -9 0 -13 2 -12 -17 -10 -24 2 -3 6 -16 10 -28
10 -19 0 -20 -1 -6 -16 9 -8 22 -17 30 -18 25 -5 54 -19 62 -30 5 -6 5 0 1 14
-6 21 -5 23 8 12 19 -15 51 -5 44 14 -6 17 6 18 21 3 8 -8 13 -8 18 1 4 6 4
14 1 17 -8 9 -126 12 -127 4z"/>
<path d="M1060 1258 c-2 -189 -21 -252 -79 -263 -20 -4 -61 -21 -91 -38 -30
-18 -57 -32 -60 -32 -3 0 -32 -18 -64 -39 -33 -21 -67 -40 -75 -43 -9 -4 -23
-12 -31 -19 -8 -7 -19 -12 -23 -12 -5 0 -36 -18 -70 -40 -34 -21 -85 -51 -114
-65 -29 -14 -77 -44 -108 -67 -31 -23 -80 -50 -109 -60 -89 -30 -111 -46 -175
-126 -45 -56 -61 -85 -61 -107 0 -30 1 -30 33 20 17 28 51 76 74 106 42 55 69
70 167 92 16 3 52 26 80 49 28 24 83 60 121 80 39 20 98 53 132 73 92 57 210
126 253 148 21 11 49 30 62 41 13 12 39 24 59 28 67 12 79 37 86 180 3 69 3
126 0 126 -4 0 -7 -15 -7 -32z"/>
<path d="M1468 1186 c-3 -16 0 -27 9 -30 8 -3 11 -1 8 4 -9 14 9 12 23 -2 22
-22 12 1 -12 27 l-24 25 -4 -24z"/>
<path d="M1380 950 c0 -19 40 -70 56 -70 18 0 17 10 -4 35 -29 34 -52 49 -52
35z"/>
<path d="M1929 947 c32 -40 -20 -192 -91 -267 -80 -83 -191 -147 -260 -149
-22 -1 -23 17 -3 39 9 10 18 40 22 69 5 43 3 51 -11 51 -9 0 -15 -3 -14 -7 2
-12 -23 -129 -32 -142 -6 -11 -27 -18 -57 -20 -7 -1 -13 -5 -13 -10 0 -4 19
-6 43 -4 125 13 255 70 328 145 84 87 138 262 93 298 -18 14 -18 14 -5 -3z"/>
<path d="M2007 792 c-11 -31 -30 -77 -43 -101 -13 -24 -18 -38 -10 -32 25 21
94 191 78 191 -4 0 -15 -26 -25 -58z"/>
<path d="M860 807 c-1 -29 64 -128 129 -195 116 -121 243 -194 335 -191 21 0
11 5 -30 14 -69 15 -108 32 -174 79 -75 52 -193 178 -227 241 -18 33 -33 56
-33 52z"/>
<path d="M671 744 c-22 -28 -27 -44 -13 -44 5 0 16 16 25 35 20 42 16 45 -12
9z"/>
<path d="M2194 735 c1 -8 7 -20 13 -26 6 -6 9 -17 7 -24 -8 -20 12 -27 26 -10
9 10 9 15 1 15 -6 0 -11 11 -11 24 0 13 -7 27 -16 30 -22 8 -23 8 -20 -9z"/>
<path d="M810 740 c-7 -19 -7 -80 0 -80 12 0 18 43 9 66 -4 10 -8 17 -9 14z"/>
<path d="M1226 711 c-7 -11 45 -89 84 -126 32 -30 32 -30 25 -5 -9 34 -53 100
-65 100 -6 0 -10 6 -10 14 0 16 -27 29 -34 17z"/>
<path d="M627 663 c-6 -16 -19 -33 -27 -40 -8 -7 -11 -13 -6 -13 5 0 2 -7 -5
-16 -7 -9 -14 -25 -16 -35 -2 -11 -12 -38 -24 -61 -11 -22 -22 -48 -24 -57 -8
-39 -37 -106 -48 -113 -8 -5 -7 -8 6 -8 17 0 17 -1 0 -27 -12 -18 -14 -28 -6
-30 8 -3 7 -11 -2 -30 -8 -15 -12 -30 -9 -34 4 -8 -30 -162 -41 -179 -3 -5 2
-10 12 -10 19 0 24 17 53 200 6 36 15 88 20 115 11 52 87 249 126 323 12 23
18 42 13 42 -5 0 -15 -12 -22 -27z"/>
<path d="M2246 662 c-6 -10 4 -52 13 -52 3 0 7 14 8 30 2 28 -10 40 -21 22z"/>
<path d="M1120 620 c39 -32 48 -32 29 -2 -7 11 -24 23 -38 25 -24 5 -23 3 9
-23z"/>
<path d="M1974 627 c-42 -47 -48 -57 -33 -57 15 0 65 67 57 75 -2 3 -13 -5
-24 -18z"/>
<path d="M2397 428 c-18 -9 -18 -10 0 -23 10 -7 18 -17 19 -22 0 -4 4 -15 7
-23 11 -26 30 -75 32 -80 11 -48 23 -81 58 -167 31 -77 46 -103 59 -103 22 0
22 0 -1 52 -46 104 -111 276 -111 293 0 6 -10 27 -23 47 -18 31 -25 35 -40 26z"/>
<path d="M281 207 c20 -60 31 -155 18 -163 -5 -3 -9 0 -9 6 0 6 -4 8 -10 5 -5
-3 -10 -15 -10 -26 0 -15 7 -19 36 -19 34 0 35 2 30 27 -3 16 -10 59 -16 97
-10 64 -35 126 -51 126 -3 0 2 -24 12 -53z"/>
<path d="M2677 182 c-9 -32 -17 -72 -17 -89 0 -18 -4 -43 -10 -57 -7 -20 -6
-26 5 -26 13 0 22 33 40 145 3 22 9 50 12 63 3 12 1 22 -4 22 -5 0 -16 -26
-26 -58z"/>
<path d="M143 190 c3 -8 18 -52 33 -97 16 -46 33 -83 40 -83 14 0 -41 159 -63
180 -14 13 -15 13 -10 0z"/>
<path d="M103 150 c3 -14 11 -45 17 -69 6 -24 9 -50 6 -58 -4 -9 3 -13 19 -13
l24 0 -25 72 c-24 73 -52 118 -41 68z"/>
<path d="M582 131 c-7 -4 -14 -14 -16 -22 -1 -8 -10 -31 -19 -53 -9 -21 -17
-40 -17 -42 0 -2 16 -4 36 -4 20 0 33 4 29 10 -3 5 -12 7 -20 4 -16 -6 -14 11
4 59 6 15 8 27 5 27 -4 0 -1 7 6 15 14 17 11 19 -8 6z"/>
<path d="M399 100 c-4 -38 -7 -56 -14 -74 -6 -14 -4 -17 6 -14 16 5 29 71 18
90 -7 10 -9 10 -10 -2z"/>
<path d="M496 66 c-3 -13 -9 -31 -12 -40 -4 -10 -1 -16 9 -16 10 0 16 13 19
40 4 44 -6 54 -16 16z"/>
<path d="M2976 45 c-3 -9 -16 -20 -28 -25 -21 -8 -20 -9 10 -9 28 -1 32 2 32
24 0 28 -5 32 -14 10z"/>
<path d="M0 20 c0 -6 26 -10 57 -10 68 0 67 6 -4 14 -32 3 -53 2 -53 -4z"/>
<path d="M765 20 l-80 -6 88 -2 c52 -1 87 2 87 8 0 6 -3 9 -7 8 -5 -1 -44 -5
-88 -8z"/>
<path d="M1090 20 c-6 -4 21 -7 60 -8 38 -1 70 1 70 5 0 10 -116 12 -130 3z"/>
<path d="M2065 20 l-50 -7 62 0 c34 0 60 4 57 8 -3 5 -8 8 -12 7 -4 0 -29 -4
-57 -8z"/>
</g>
</svg>
